name ./resultDataOpenSim/trcMotMarkerGrf/sub09/grf-14-01.mot
datacolumns 19
datarows 22
range 1.52000000 1.60400000
endheader

                time	     ground_force_vx	     ground_force_vy	     ground_force_vz	     ground_force_px	     ground_force_py	     ground_force_pz	   l_ground_force_vx	   l_ground_force_vy	   l_ground_force_vz	   l_ground_force_px	   l_ground_force_py	   l_ground_force_pz	     ground_torque_x	     ground_torque_y	     ground_torque_z	   l_ground_torque_x	   l_ground_torque_y	   l_ground_torque_z	
          1.52000000	        -12.81621059	        449.33635869	         -0.50940390	          0.96428009	          0.00000000	          0.01622953	          0.00000000	          0.00000000	          0.00000000	          0.00000000	          0.00000000	          0.00000000	          0.00000000	         -0.34589804	          0.00000000	          0.00000000	          0.00000000	          0.00000000	
          1.52400000	        -11.58342431	        444.93195074	         -2.95474428	          0.96437406	          0.00000000	          0.01637344	          0.00000000	          0.00000000	          0.00000000	          0.00000000	          0.00000000	          0.00000000	          0.00000000	         -0.35217215	          0.00000000	          0.00000000	          0.00000000	          0.00000000	
          1.52800000	         -9.48125209	        440.73965947	         -5.44393209	          0.96433493	          0.00000000	          0.01652433	          0.00000000	          0.00000000	          0.00000000	          0.00000000	          0.00000000	          0.00000000	          0.00000000	         -0.36564293	          0.00000000	          0.00000000	          0.00000000	          0.00000000	
          1.53200000	         -6.81930253	        436.81035767	         -7.47873266	          0.96419380	          0.00000000	          0.01665974	          0.00000000	          0.00000000	          0.00000000	          0.00000000	          0.00000000	          0.00000000	          0.00000000	         -0.37682020	          0.00000000	          0.00000000	          0.00000000	          0.00000000	
          1.53600000	         -4.05047314	        433.21484847	         -8.65594991	          0.96403801	          0.00000000	          0.01675305	          0.00000000	          0.00000000	          0.00000000	          0.00000000	          0.00000000	          0.00000000	          0.00000000	         -0.37744445	          0.00000000	          0.00000000	          0.00000000	          0.00000000	
          1.54000000	         -1.64579440	        430.03626126	         -8.72085217	          0.96393581	          0.00000000	          0.01678579	          0.00000000	          0.00000000	          0.00000000	          0.00000000	          0.00000000	          0.00000000	          0.00000000	         -0.35921386	          0.00000000	          0.00000000	          0.00000000	          0.00000000	
          1.54400000	          0.02231504	        427.35921314	         -7.60158640	          0.96394080	          0.00000000	          0.01674733	          0.00000000	          0.00000000	          0.00000000	          0.00000000	          0.00000000	          0.00000000	          0.00000000	         -0.31474576	          0.00000000	          0.00000000	          0.00000000	          0.00000000	
          1.54800000	          0.77027256	        425.24335583	         -5.42564792	          0.96408604	          0.00000000	          0.01663427	          0.00000000	          0.00000000	          0.00000000	          0.00000000	          0.00000000	          0.00000000	          0.00000000	         -0.24084790	          0.00000000	          0.00000000	          0.00000000	          0.00000000	
          1.55200000	          0.65884005	        423.68993269	         -2.51334034	          0.96436809	          0.00000000	          0.01645503	          0.00000000	          0.00000000	          0.00000000	          0.00000000	          0.00000000	          0.00000000	          0.00000000	         -0.14176568	          0.00000000	          0.00000000	          0.00000000	          0.00000000	
          1.55600000	         -0.01476231	        422.62566540	          0.67633527	          0.96474639	          0.00000000	          0.01623138	          0.00000000	          0.00000000	          0.00000000	          0.00000000	          0.00000000	          0.00000000	          0.00000000	         -0.02957510	          0.00000000	          0.00000000	          0.00000000	          0.00000000	
          1.56000000	         -0.80376102	        421.92168975	          3.64208593	          0.96514329	          0.00000000	          0.01599153	          0.00000000	          0.00000000	          0.00000000	          0.00000000	          0.00000000	          0.00000000	          0.00000000	          0.07930431	          0.00000000	          0.00000000	          0.00000000	          0.00000000	
          1.56400000	         -1.24481744	        421.42932510	          5.94040021	          0.96547876	          0.00000000	          0.01576284	          0.00000000	          0.00000000	          0.00000000	          0.00000000	          0.00000000	          0.00000000	          0.00000000	          0.16979949	          0.00000000	          0.00000000	          0.00000000	          0.00000000	
          1.56800000	         -0.97851370	        421.01787739	          7.26403750	          0.96570327	          0.00000000	          0.01557143	          0.00000000	          0.00000000	          0.00000000	          0.00000000	          0.00000000	          0.00000000	          0.00000000	          0.23288586	          0.00000000	          0.00000000	          0.00000000	          0.00000000	
          1.57200000	          0.17592367	        420.60845540	          7.49244874	          0.96578537	          0.00000000	          0.01543742	          0.00000000	          0.00000000	          0.00000000	          0.00000000	          0.00000000	          0.00000000	          0.00000000	          0.26693141	          0.00000000	          0.00000000	          0.00000000	          0.00000000	
          1.57600000	          2.19113136	        420.19108122	          6.70519021	          0.96572906	          0.00000000	          0.01536449	          0.00000000	          0.00000000	          0.00000000	          0.00000000	          0.00000000	          0.00000000	          0.00000000	          0.27577209	          0.00000000	          0.00000000	          0.00000000	          0.00000000	
          1.58000000	          4.85052253	        419.83282339	          5.15445550	          0.96557146	          0.00000000	          0.01534274	          0.00000000	          0.00000000	          0.00000000	          0.00000000	          0.00000000	          0.00000000	          0.00000000	          0.26572594	          0.00000000	          0.00000000	          0.00000000	          0.00000000	
          1.58400000	          7.81510255	        419.67809686	          3.21387056	          0.96536502	          0.00000000	          0.01535112	          0.00000000	          0.00000000	          0.00000000	          0.00000000	          0.00000000	          0.00000000	          0.00000000	          0.24390909	          0.00000000	          0.00000000	          0.00000000	          0.00000000	
          1.58800000	         10.71393055	        419.91628342	          1.32040221	          0.96517672	          0.00000000	          0.01535451	          0.00000000	          0.00000000	          0.00000000	          0.00000000	          0.00000000	          0.00000000	          0.00000000	          0.21845713	          0.00000000	          0.00000000	          0.00000000	          0.00000000	
          1.59200000	         13.23203434	        420.71204216	         -0.09244089	          0.96504062	          0.00000000	          0.01531195	          0.00000000	          0.00000000	          0.00000000	          0.00000000	          0.00000000	          0.00000000	          0.00000000	          0.19920323	          0.00000000	          0.00000000	          0.00000000	          0.00000000	
          1.59600000	         15.18115593	        422.15425387	         -0.67013591	          0.96498590	          0.00000000	          0.01519490	          0.00000000	          0.00000000	          0.00000000	          0.00000000	          0.00000000	          0.00000000	          0.00000000	          0.19681453	          0.00000000	          0.00000000	          0.00000000	          0.00000000	
          1.60000000	         16.54310876	        424.27447735	         -0.20749093	          0.96502211	          0.00000000	          0.01499712	          0.00000000	          0.00000000	          0.00000000	          0.00000000	          0.00000000	          0.00000000	          0.00000000	          0.21978284	          0.00000000	          0.00000000	          0.00000000	          0.00000000	
          1.60400000	         17.46796910	        427.07613079	          1.30117063	          0.96511839	          0.00000000	          0.01472654	          0.00000000	          0.00000000	          0.00000000	          0.00000000	          0.00000000	          0.00000000	          0.00000000	          0.27079044	          0.00000000	          0.00000000	          0.00000000	          0.00000000	
